<svg xmlns="http://www.w3.org/2000/svg" width="38" height="38" viewBox="0 0 38 38">
  <g id="Group_8" data-name="Group 8" transform="translate(-0.241)">
    <path id="iconmonstr-instagram-11" d="M11.567,2.085c3.088,0,3.455.012,4.675.067,3.135.143,4.6,1.63,4.742,4.742.056,1.219.067,1.586.067,4.674s-.012,3.455-.067,4.674c-.144,3.109-1.6,4.6-4.742,4.742-1.22.056-1.585.067-4.675.067s-3.455-.012-4.674-.067c-3.142-.144-4.6-1.638-4.742-4.742-.056-1.219-.067-1.585-.067-4.674s.013-3.454.067-4.674c.144-3.111,1.6-4.6,4.742-4.742,1.22-.055,1.586-.067,4.674-.067Zm0-2.085C8.426,0,8.032.013,6.8.069,2.6.262.263,2.593.07,6.8.013,8.032,0,8.426,0,11.567S.013,15.1.069,16.337c.193,4.2,2.524,6.535,6.728,6.728,1.235.056,1.628.069,4.769.069s3.536-.013,4.769-.069c4.2-.193,6.537-2.524,6.727-6.728.057-1.234.07-1.628.07-4.769s-.013-3.535-.069-4.769C22.876,2.6,20.542.263,16.338.07,15.1.013,14.708,0,11.567,0Zm0,5.627a5.94,5.94,0,1,0,5.94,5.94A5.94,5.94,0,0,0,11.567,5.627Zm0,9.8a3.856,3.856,0,1,1,3.856-3.856A3.855,3.855,0,0,1,11.567,15.423ZM17.742,4.005a1.388,1.388,0,1,0,1.387,1.388A1.389,1.389,0,0,0,17.742,4.005Z" transform="translate(7.207 7.122)"/>
    <g id="Ellipse_3" data-name="Ellipse 3" transform="translate(0.241)" fill="none" stroke="#000" stroke-width="2">
      <circle cx="19" cy="19" r="19" stroke="none"/>
      <circle cx="19" cy="19" r="18" fill="none"/>
    </g>
  </g>
</svg>
