<svg id="Group_9" data-name="Group 9" xmlns="http://www.w3.org/2000/svg" width="38" height="38" viewBox="0 0 38 38">
  <path id="iconmonstr-twitter-1" d="M23.134,4.474a9.476,9.476,0,0,1-2.726.747A4.754,4.754,0,0,0,22.5,2.6a9.508,9.508,0,0,1-3.014,1.152,4.749,4.749,0,0,0-8.088,4.328A13.474,13.474,0,0,1,1.611,3.116,4.752,4.752,0,0,0,3.079,9.453,4.726,4.726,0,0,1,.93,8.86a4.75,4.75,0,0,0,3.807,4.714,4.757,4.757,0,0,1-2.144.081,4.75,4.75,0,0,0,4.434,3.3A9.543,9.543,0,0,1,0,18.916a13.436,13.436,0,0,0,7.276,2.132A13.423,13.423,0,0,0,20.766,6.931a9.663,9.663,0,0,0,2.368-2.457Z" transform="translate(7.711 8.235)"/>
  <g id="Ellipse_2" data-name="Ellipse 2" fill="none" stroke="#000" stroke-width="2">
    <circle cx="19" cy="19" r="19" stroke="none"/>
    <circle cx="19" cy="19" r="18" fill="none"/>
  </g>
</svg>
